<svg xmlns="http://www.w3.org/2000/svg" version="1.1" xmlns:xlink="http://www.w3.org/1999/xlink" xmlns:svgjs="http://svgjs.com/svgjs" width="1440" height="560" preserveAspectRatio="none" viewBox="0 0 1440 560"><g mask="url(&quot;#SvgjsMask1030&quot;)" fill="none"><path d="M242.76 631.81C410.31 627.74 538.23 397.42 868.67 391.68 1199.11 385.94 1331.44 208.8 1494.58 206.88" stroke="rgba(51,121,194,0.58)" stroke-width="2"></path><path d="M187.97 608.74C313.05 606.37 422.9 443.43 660.23 443.31 897.56 443.19 896.36 513.31 1132.48 513.31 1368.61 513.31 1485.39 443.5 1604.74 443.31" stroke="rgba(51,121,194,0.58)" stroke-width="2"></path><path d="M576.31 671.87C712.82 664.52 793.47 431.36 1061.69 419.98 1329.91 408.6 1415.2 217.05 1547.07 212.78" stroke="rgba(51,121,194,0.58)" stroke-width="2"></path><path d="M790.62 597.55C908.47 576.71 933.8 307.11 1152.11 283.72 1370.42 260.33 1412.24 104.17 1513.6 98.92" stroke="rgba(51,121,194,0.58)" stroke-width="2"></path><path d="M426.93 671.39C545.92 656.32 612.08 387.37 812.07 385.34 1012.06 383.31 1004.64 455.34 1197.2 455.34 1389.77 455.34 1484.48 385.62 1582.34 385.34" stroke="rgba(51,121,194,0.58)" stroke-width="2"></path></g><defs><mask id="SvgjsMask1030"><rect width="1440" height="560" fill="#ffffff"></rect></mask></defs></svg>