<svg xmlns="http://www.w3.org/2000/svg" version="1.1" xmlns:xlink="http://www.w3.org/1999/xlink" xmlns:svgjs="http://svgjs.com/svgjs" width="1440" height="560" preserveAspectRatio="none" viewBox="0 0 1440 560"><g mask="url(&quot;#SvgjsMask1010&quot;)" fill="none"><path d="M -15.008911880343987,249 C 80.99,277.4 272.99,424.4 464.991088119656,391 C 656.99,357.6 752.99,95.8 944.9910881196561,82 C 1136.99,68.2 1232.99,320 1424.991088119656,322 C 1616.99,324 1901.99,91.8 1904.991088119656,92 C 1907.99,92.2 1533,276.8 1440,323" stroke="rgba(51, 121, 194, 0.58)" stroke-width="2"></path><path d="M -612.7026640250767,147 C -516.7,177.4 -324.7,317 -132.70266402507676,299 C 59.3,281 155.3,27.4 347.29733597492327,57 C 539.3,86.6 635.3,418.4 827.2973359749233,447 C 1019.3,475.6 1184.76,216.4 1307.2973359749233,200 C 1429.84,183.6 1413.46,332 1440,365" stroke="rgba(51, 121, 194, 0.58)" stroke-width="2"></path><path d="M -763.2257037024992,228 C -667.23,279.2 -475.23,478 -283.2257037024993,484 C -91.23,490 4.77,280 196.7742962975007,258 C 388.77,236 484.77,378.4 676.7742962975008,374 C 868.77,369.6 1004.13,253 1156.7742962975008,236 C 1309.42,219 1383.35,278.4 1440,289" stroke="rgba(51, 121, 194, 0.58)" stroke-width="2"></path><path d="M -856.6323640534915,445 C -760.63,402.4 -568.63,223 -376.6323640534916,232 C -184.63,241 -88.63,503.4 103.36763594650841,490 C 295.37,476.6 391.37,189 583.3676359465085,165 C 775.37,141 892.04,377.4 1063.3676359465085,370 C 1234.69,362.6 1364.67,176.4 1440,128" stroke="rgba(51, 121, 194, 0.58)" stroke-width="2"></path></g><defs><mask id="SvgjsMask1010"><rect width="1440" height="560" fill="#ffffff"></rect></mask></defs></svg>